<svg width="7" height="11" viewBox="0 0 7 11" fill="none" xmlns="http://www.w3.org/2000/svg">
<path d="M0.0539773 11V10.1051L3.41477 6.42614C3.80919 5.99526 4.134 5.62074 4.3892 5.30256C4.64441 4.98106 4.83333 4.67945 4.95597 4.39773C5.08191 4.11269 5.14489 3.81439 5.14489 3.50284C5.14489 3.14489 5.05871 2.83499 4.88636 2.57315C4.71733 2.31132 4.48532 2.10914 4.19034 1.96662C3.89536 1.8241 3.56392 1.75284 3.19602 1.75284C2.80492 1.75284 2.46354 1.83404 2.17188 1.99645C1.88352 2.15554 1.6598 2.37926 1.50071 2.66761C1.34493 2.95597 1.26705 3.29403 1.26705 3.68182H0.09375C0.09375 3.08523 0.231297 2.56155 0.506392 2.1108C0.781487 1.66004 1.15601 1.30871 1.62997 1.05682C2.10724 0.804924 2.64252 0.678977 3.2358 0.678977C3.83239 0.678977 4.36103 0.804924 4.82173 1.05682C5.28243 1.30871 5.6437 1.64844 5.90554 2.07599C6.16738 2.50355 6.2983 2.97917 6.2983 3.50284C6.2983 3.87737 6.23035 4.24361 6.09446 4.60156C5.96188 4.9562 5.72988 5.35227 5.39844 5.78977C5.07031 6.22396 4.61458 6.75426 4.03125 7.38068L1.74432 9.8267V9.90625H6.47727V11H0.0539773Z" fill="#2A282F"/>
</svg>
