<svg width="48" height="28" viewBox="0 0 48 28" fill="none" xmlns="http://www.w3.org/2000/svg">
<g clip-path="url(#clip0_34_142)">
<path d="M10.9999 7.56244C9.83992 7.56244 8.72659 8.10244 7.99992 8.95577C7.27325 8.10244 6.15992 7.56244 4.99992 7.56244C2.94659 7.56244 1.33325 9.17577 1.33325 11.2291C1.33325 13.7491 3.59992 15.8024 7.03325 18.9224L7.99992 19.7958L8.96659 18.9158C12.3999 15.8024 14.6666 13.7491 14.6666 11.2291C14.6666 9.17577 13.0533 7.56244 10.9999 7.56244ZM8.06659 17.9291L7.99992 17.9958L7.93325 17.9291C4.75992 15.0558 2.66659 13.1558 2.66659 11.2291C2.66659 9.89577 3.66659 8.89577 4.99992 8.89577C6.02659 8.89577 7.02659 9.55577 7.37992 10.4691H8.62659C8.97325 9.55577 9.97325 8.89577 10.9999 8.89577C12.3333 8.89577 13.3333 9.89577 13.3333 11.2291C13.3333 13.1558 11.2399 15.0558 8.06659 17.9291Z" fill="#A8A6AC"/>
</g>
<path d="M31.6693 22.2729C31.1674 22.7041 30.6497 22.9988 30.1161 23.1571C29.5849 23.3133 29.0803 23.3329 28.6025 23.216C28.1247 23.0991 27.7204 22.8459 27.3898 22.4564C27.1267 22.1549 26.9489 21.8228 26.8563 21.4601C26.7641 21.093 26.7545 20.73 26.8275 20.371C26.8985 20.0097 27.0493 19.6894 27.28 19.4101L27.2439 19.368C26.8125 19.5886 26.3621 19.6429 25.8926 19.5309C25.4231 19.419 25.0241 19.1695 24.6954 18.7823C24.3782 18.4178 24.1943 18.0078 24.1436 17.5522C24.0933 17.0922 24.1697 16.631 24.3728 16.1684C24.5759 15.7058 24.898 15.285 25.3392 14.9059C25.7757 14.5308 26.2377 14.2799 26.7253 14.1531C27.2131 14.022 27.6806 14.0159 28.1278 14.1349C28.5729 14.2515 28.9531 14.4909 29.2683 14.853C29.5969 15.2402 29.78 15.6753 29.8177 16.1583C29.8553 16.6412 29.7374 17.0753 29.4638 17.4606L29.4999 17.5026C29.8084 17.3186 30.1443 17.2207 30.5075 17.2089C30.871 17.1928 31.2272 17.258 31.5763 17.4044C31.9256 17.5465 32.2318 17.7683 32.4949 18.0698C32.8255 18.4593 33.0127 18.899 33.0563 19.389C33.1 19.879 33.0035 20.3758 32.7667 20.8795C32.5323 21.3812 32.1665 21.8457 31.6693 22.2729ZM30.9081 21.387C31.2046 21.1323 31.4192 20.8626 31.5521 20.5781C31.6829 20.2912 31.7317 20.0078 31.6983 19.7282C31.6629 19.4461 31.543 19.1839 31.3388 18.9414C31.1218 18.6937 30.8669 18.5293 30.5741 18.4482C30.2836 18.3651 29.9826 18.3619 29.6713 18.4387C29.3599 18.5156 29.0642 18.6743 28.784 18.915C28.5016 19.1577 28.2978 19.4282 28.1726 19.7264C28.0475 20.0247 28.0041 20.3237 28.0425 20.6234C28.081 20.9231 28.2086 21.1969 28.4256 21.4446C28.6299 21.6871 28.8676 21.848 29.1387 21.9275C29.4102 22.0026 29.6988 21.996 30.0045 21.9079C30.3081 21.8174 30.6093 21.6438 30.9081 21.387ZM28.0409 18.0502C28.279 17.8456 28.4491 17.6162 28.5513 17.362C28.6535 17.1079 28.6839 16.8505 28.6425 16.5898C28.6035 16.3271 28.4868 16.0804 28.2926 15.8497C28.0977 15.6276 27.8755 15.4776 27.6261 15.3998C27.379 15.32 27.1241 15.3138 26.8614 15.3812C26.5968 15.4463 26.3431 15.5831 26.1003 15.7917C25.8529 16.0044 25.6759 16.2376 25.5694 16.4914C25.4632 16.7409 25.431 16.9938 25.4727 17.2501C25.5144 17.5064 25.6327 17.7457 25.8276 17.9677C26.0218 18.1985 26.2447 18.354 26.4961 18.4341C26.7476 18.5142 27.0066 18.5229 27.2733 18.4602C27.5423 18.3954 27.7981 18.2588 28.0409 18.0502ZM31.9509 9.39508L38.1126 16.566L37.0272 17.4987L31.7982 11.4132L31.7561 11.4493L31.0032 14.044L30.1127 13.0076L30.897 10.3007L31.9509 9.39508ZM42.6402 12.8461C42.3164 13.1162 41.9511 13.3286 41.5443 13.4833C41.1399 13.6361 40.6994 13.69 40.2226 13.6452C39.7459 13.6004 39.2421 13.4226 38.7113 13.1118C38.1828 12.7989 37.6347 12.3122 37.0671 11.6516C36.5296 11.026 36.1141 10.4173 35.8206 9.82549C35.5294 9.23165 35.3583 8.66654 35.3073 8.13016C35.2542 7.59144 35.3194 7.09113 35.5027 6.62924C35.6861 6.16734 35.9855 5.75788 36.401 5.40086C36.8282 5.0338 37.2797 4.7919 37.7556 4.67515C38.2315 4.55841 38.6995 4.56001 39.1597 4.67995C39.6222 4.79789 40.0439 5.02187 40.4248 5.35189L39.3569 6.26952C39.0278 6.03291 38.6746 5.91233 38.2974 5.90779C37.9202 5.90324 37.5588 6.04939 37.2134 6.34624C36.6882 6.79754 36.4751 7.37831 36.5741 8.08855C36.6754 8.79679 37.0749 9.55925 37.7726 10.3759L37.8251 10.3308C37.7743 10.0214 37.7776 9.71829 37.835 9.42146C37.8927 9.12028 38.0005 8.8349 38.1584 8.56532C38.3167 8.29139 38.5207 8.04712 38.7704 7.83251C39.1859 7.47548 39.649 7.2541 40.1597 7.16835C40.6706 7.07827 41.1789 7.12438 41.6845 7.3067C42.1902 7.48901 42.6395 7.80893 43.0327 8.26645C43.4258 8.72397 43.6779 9.22756 43.7891 9.77723C43.9026 10.3249 43.8659 10.8677 43.6789 11.4057C43.49 11.9414 43.1437 12.4215 42.6402 12.8461ZM41.8544 11.9387C42.1299 11.702 42.318 11.4227 42.4187 11.1008C42.5195 10.7789 42.5346 10.4494 42.4641 10.1123C42.3936 9.77526 42.237 9.4655 41.9943 9.18305C41.7576 8.9076 41.4801 8.70982 41.1618 8.5897C40.8459 8.46757 40.5234 8.43225 40.1943 8.48372C39.8676 8.53319 39.5676 8.67526 39.2945 8.90994C39.0868 9.08845 38.9283 9.29361 38.8191 9.52541C38.7122 9.75521 38.6524 9.9973 38.6397 10.2517C38.627 10.5061 38.6603 10.7574 38.7398 11.0057C38.8195 11.2496 38.9456 11.4719 39.1181 11.6727C39.3488 11.9411 39.6243 12.1366 39.9445 12.259C40.2671 12.3795 40.5972 12.4164 40.9346 12.37C41.2724 12.3191 41.579 12.1754 41.8544 11.9387Z" fill="#A8A6AC"/>
<defs>
<clipPath id="clip0_34_142">
<rect width="16" height="16" fill="white" transform="translate(0 5.56244)"/>
</clipPath>
</defs>
</svg>
