<svg width="44" height="17" viewBox="0 0 44 17" fill="none" xmlns="http://www.w3.org/2000/svg">
<g clip-path="url(#clip0_34_152)">
<path d="M14.2053 1.89575H3.53866C2.80532 1.89575 2.20532 2.49575 2.20532 3.22909V15.2291L4.87199 12.5624H14.2053C14.9387 12.5624 15.5387 11.9624 15.5387 11.2291V3.22909C15.5387 2.49575 14.9387 1.89575 14.2053 1.89575ZM14.2053 11.2291H4.87199L3.53866 12.5624V3.22909H14.2053V11.2291Z" fill="#A8A6AC"/>
</g>
<path d="M25.3685 4.10789V13.5624H23.9374V5.539H23.882L21.6199 7.01627V5.6498L23.979 4.10789H25.3685ZM31.1206 13.6917C30.459 13.6917 29.8742 13.5778 29.3664 13.3501C28.8617 13.1223 28.4662 12.8084 28.18 12.4083C27.8937 12.0082 27.7522 11.5527 27.7552 11.0418C27.7522 10.6417 27.8337 10.274 27.9999 9.9385C28.1692 9.59996 28.3985 9.31836 28.6878 9.09369C28.9771 8.86594 29.3002 8.72129 29.6572 8.65974V8.60434C29.1863 8.49047 28.8093 8.2381 28.5262 7.84724C28.243 7.45638 28.103 7.00704 28.1061 6.49923C28.103 6.01604 28.2307 5.58517 28.4893 5.20662C28.7509 4.82499 29.1094 4.52491 29.5649 4.3064C30.0204 4.08789 30.539 3.97863 31.1206 3.97863C31.6962 3.97863 32.2101 4.08943 32.6626 4.31102C33.118 4.52953 33.4766 4.8296 33.7382 5.21123C33.9998 5.58978 34.1321 6.01911 34.1352 6.49923C34.1321 7.00704 33.9875 7.45638 33.7013 7.84724C33.415 8.2381 33.0426 8.49047 32.5841 8.60434V8.65974C32.938 8.72129 33.2565 8.86594 33.5397 9.09369C33.8259 9.31836 34.0537 9.59996 34.2229 9.9385C34.3953 10.274 34.483 10.6417 34.4861 11.0418C34.483 11.5527 34.3383 12.0082 34.0521 12.4083C33.7659 12.8084 33.3689 13.1223 32.8611 13.3501C32.3563 13.5778 31.7762 13.6917 31.1206 13.6917ZM31.1206 12.5237C31.5115 12.5237 31.8501 12.4591 32.1363 12.3298C32.4225 12.1975 32.6441 12.0144 32.801 11.7805C32.958 11.5435 33.038 11.2665 33.0411 10.9495C33.038 10.6202 32.9519 10.3294 32.7826 10.077C32.6164 9.82463 32.3902 9.62612 32.104 9.48147C31.8177 9.33682 31.49 9.2645 31.1206 9.2645C30.7483 9.2645 30.4174 9.33682 30.1281 9.48147C29.8388 9.62612 29.6111 9.82463 29.4449 10.077C29.2787 10.3294 29.1971 10.6202 29.2002 10.9495C29.1971 11.2665 29.2725 11.5435 29.4264 11.7805C29.5834 12.0144 29.8065 12.1975 30.0958 12.3298C30.3851 12.4591 30.7267 12.5237 31.1206 12.5237ZM31.1206 8.12423C31.4346 8.12423 31.7131 8.06114 31.9562 7.93495C32.1994 7.80877 32.3902 7.63334 32.5287 7.40867C32.6702 7.18401 32.7426 6.92087 32.7456 6.61926C32.7426 6.3238 32.6718 6.06528 32.5333 5.84369C32.3979 5.6221 32.2086 5.45129 31.9655 5.33126C31.7223 5.20815 31.4407 5.1466 31.1206 5.1466C30.7944 5.1466 30.5082 5.20815 30.262 5.33126C30.0189 5.45129 29.8296 5.6221 29.6942 5.84369C29.5587 6.06528 29.4926 6.3238 29.4956 6.61926C29.4926 6.92087 29.5603 7.18401 29.6988 7.40867C29.8373 7.63334 30.0281 7.80877 30.2712 7.93495C30.5174 8.06114 30.8006 8.12423 31.1206 8.12423ZM39.2607 13.6917C38.6821 13.6917 38.1619 13.5809 37.7003 13.3593C37.2417 13.1346 36.8755 12.8269 36.6016 12.436C36.3277 12.0452 36.1815 11.5989 36.163 11.0972H37.5479C37.5818 11.5035 37.7618 11.8374 38.0881 12.099C38.4143 12.3606 38.8052 12.4914 39.2607 12.4914C39.6238 12.4914 39.9454 12.4083 40.2255 12.2421C40.5086 12.0729 40.7302 11.8405 40.8903 11.545C41.0534 11.2496 41.1349 10.9126 41.1349 10.534C41.1349 10.1493 41.0518 9.80617 40.8857 9.50456C40.7195 9.20295 40.4902 8.96597 40.1978 8.79362C39.9085 8.62127 39.5761 8.53356 39.2006 8.53048C38.9144 8.53048 38.6267 8.57972 38.3374 8.67821C38.0481 8.77669 37.8142 8.90595 37.6357 9.06599L36.3292 8.8721L36.8601 4.10789H42.0582V5.33126H38.0465L37.7464 7.9765H37.8018C37.9865 7.798 38.2312 7.64873 38.5359 7.5287C38.8436 7.40867 39.1729 7.34866 39.5238 7.34866C40.0993 7.34866 40.6117 7.48562 41.0611 7.75953C41.5135 8.03344 41.869 8.40737 42.1275 8.88133C42.3891 9.35221 42.5183 9.89388 42.5153 10.5063C42.5183 11.1188 42.3799 11.6651 42.0998 12.1452C41.8228 12.6253 41.4381 13.0038 40.9457 13.2808C40.4563 13.5547 39.8946 13.6917 39.2607 13.6917Z" fill="#A8A6AC"/>
<defs>
<clipPath id="clip0_34_152">
<rect width="16" height="16" fill="white" transform="translate(0.87207 0.562439)"/>
</clipPath>
</defs>
</svg>
