<svg width="45" height="17" viewBox="0 0 45 17" fill="none" xmlns="http://www.w3.org/2000/svg">
<g clip-path="url(#clip0_34_147)">
<path d="M12.2053 2.56244H5.53866C4.80532 2.56244 4.21199 3.16244 4.21199 3.89577L4.20532 14.5624L8.87199 12.5624L13.5387 14.5624V3.89577C13.5387 3.16244 12.9387 2.56244 12.2053 2.56244ZM12.2053 12.5624L8.87199 11.1091L5.53866 12.5624V3.89577H12.2053V12.5624Z" fill="#A8A6AC"/>
</g>
<path d="M24.9761 13.6917C24.3144 13.6917 23.7297 13.5778 23.2219 13.3501C22.7171 13.1223 22.3216 12.8084 22.0354 12.4083C21.7492 12.0082 21.6076 11.5527 21.6107 11.0418C21.6076 10.6417 21.6892 10.274 21.8554 9.9385C22.0247 9.59996 22.2539 9.31836 22.5432 9.09369C22.8325 8.86594 23.1557 8.72129 23.5127 8.65974V8.60434C23.0418 8.49047 22.6648 8.2381 22.3817 7.84724C22.0985 7.45638 21.9585 7.00704 21.9616 6.49923C21.9585 6.01604 22.0862 5.58517 22.3447 5.20662C22.6063 4.82499 22.9649 4.52491 23.4204 4.3064C23.8759 4.08789 24.3944 3.97863 24.9761 3.97863C25.5516 3.97863 26.0656 4.08943 26.518 4.31102C26.9735 4.52953 27.3321 4.8296 27.5937 5.21123C27.8553 5.58978 27.9876 6.01911 27.9907 6.49923C27.9876 7.00704 27.843 7.45638 27.5567 7.84724C27.2705 8.2381 26.8981 8.49047 26.4395 8.60434V8.65974C26.7935 8.72129 27.112 8.86594 27.3952 9.09369C27.6814 9.31836 27.9091 9.59996 28.0784 9.9385C28.2507 10.274 28.3385 10.6417 28.3415 11.0418C28.3385 11.5527 28.1938 12.0082 27.9076 12.4083C27.6214 12.8084 27.2243 13.1223 26.7165 13.3501C26.2118 13.5778 25.6317 13.6917 24.9761 13.6917ZM24.9761 12.5237C25.367 12.5237 25.7055 12.4591 25.9917 12.3298C26.278 12.1975 26.4996 12.0144 26.6565 11.7805C26.8135 11.5435 26.8935 11.2665 26.8966 10.9495C26.8935 10.6202 26.8073 10.3294 26.6381 10.077C26.4719 9.82463 26.2457 9.62612 25.9594 9.48147C25.6732 9.33682 25.3454 9.2645 24.9761 9.2645C24.6037 9.2645 24.2729 9.33682 23.9836 9.48147C23.6943 9.62612 23.4665 9.82463 23.3003 10.077C23.1341 10.3294 23.0526 10.6202 23.0557 10.9495C23.0526 11.2665 23.128 11.5435 23.2819 11.7805C23.4388 12.0144 23.662 12.1975 23.9513 12.3298C24.2406 12.4591 24.5822 12.5237 24.9761 12.5237ZM24.9761 8.12423C25.29 8.12423 25.5686 8.06114 25.8117 7.93495C26.0548 7.80877 26.2457 7.63334 26.3841 7.40867C26.5257 7.18401 26.598 6.92087 26.6011 6.61926C26.598 6.3238 26.5273 6.06528 26.3888 5.84369C26.2533 5.6221 26.0641 5.45129 25.8209 5.33126C25.5778 5.20815 25.2962 5.1466 24.9761 5.1466C24.6499 5.1466 24.3637 5.20815 24.1175 5.33126C23.8743 5.45129 23.685 5.6221 23.5496 5.84369C23.4142 6.06528 23.348 6.3238 23.3511 6.61926C23.348 6.92087 23.4157 7.18401 23.5542 7.40867C23.6927 7.63334 23.8836 7.80877 24.1267 7.93495C24.3729 8.06114 24.656 8.12423 24.9761 8.12423ZM30.3139 13.5624L34.4411 5.40051V5.33126H29.6676V4.10789H35.9183V5.37281L31.805 13.5624H30.3139ZM38.0961 13.5624L42.2233 5.40051V5.33126H37.4498V4.10789H43.7006V5.37281L39.5873 13.5624H38.0961Z" fill="#A8A6AC"/>
<defs>
<clipPath id="clip0_34_147">
<rect width="16" height="16" fill="white" transform="translate(0.87207 0.562439)"/>
</clipPath>
</defs>
</svg>
