<svg width="88" height="24" viewBox="0 0 88 24" fill="none" xmlns="http://www.w3.org/2000/svg">
<g filter="url(#filter0_dd_14_90)">
<g clip-path="url(#clip0_14_90)">
<path d="M11.9999 11.5133L16.1199 14L15.0266 9.31334L18.6666 6.16L13.8733 5.75334L11.9999 1.33334L10.1266 5.75334L5.33325 6.16L8.97325 9.31334L7.87992 14L11.9999 11.5133Z" fill="#E2DEE9"/>
</g>
<g clip-path="url(#clip1_14_90)">
<path d="M27.9999 11.5133L32.1199 14L31.0266 9.31334L34.6666 6.16L29.8733 5.75334L27.9999 1.33334L26.1266 5.75334L21.3333 6.16L24.9733 9.31334L23.8799 14L27.9999 11.5133Z" fill="#E2DEE9"/>
</g>
<g clip-path="url(#clip2_14_90)">
<path d="M43.9999 11.5133L48.1199 14L47.0266 9.31334L50.6666 6.16L45.8733 5.75334L43.9999 1.33334L42.1266 5.75334L37.3333 6.16L40.9733 9.31334L39.8799 14L43.9999 11.5133Z" fill="#E2DEE9"/>
</g>
<g clip-path="url(#clip3_14_90)">
<path d="M59.9999 11.5133L64.1199 14L63.0266 9.31334L66.6666 6.16L61.8733 5.75334L59.9999 1.33334L58.1266 5.75334L53.3333 6.16L56.9733 9.31334L55.8799 14L59.9999 11.5133Z" fill="#E2DEE9"/>
</g>
<g clip-path="url(#clip4_14_90)">
<path d="M75.9999 11.5133L80.1199 14L79.0266 9.31334L82.6666 6.16L77.8733 5.75334L75.9999 1.33334L74.1266 5.75334L69.3333 6.16L72.9733 9.31334L71.8799 14L75.9999 11.5133Z" fill="#F5BE2E"/>
</g>
</g>
<defs>
<filter id="filter0_dd_14_90" x="0" y="0" width="88" height="24" filterUnits="userSpaceOnUse" color-interpolation-filters="sRGB">
<feFlood flood-opacity="0" result="BackgroundImageFix"/>
<feColorMatrix in="SourceAlpha" type="matrix" values="0 0 0 0 0 0 0 0 0 0 0 0 0 0 0 0 0 0 127 0" result="hardAlpha"/>
<feOffset dy="4"/>
<feGaussianBlur stdDeviation="2"/>
<feComposite in2="hardAlpha" operator="out"/>
<feColorMatrix type="matrix" values="0 0 0 0 0 0 0 0 0 0 0 0 0 0 0 0 0 0 0.25 0"/>
<feBlend mode="normal" in2="BackgroundImageFix" result="effect1_dropShadow_14_90"/>
<feColorMatrix in="SourceAlpha" type="matrix" values="0 0 0 0 0 0 0 0 0 0 0 0 0 0 0 0 0 0 127 0" result="hardAlpha"/>
<feOffset dy="4"/>
<feGaussianBlur stdDeviation="2"/>
<feComposite in2="hardAlpha" operator="out"/>
<feColorMatrix type="matrix" values="0 0 0 0 0 0 0 0 0 0 0 0 0 0 0 0 0 0 0.25 0"/>
<feBlend mode="normal" in2="effect1_dropShadow_14_90" result="effect2_dropShadow_14_90"/>
<feBlend mode="normal" in="SourceGraphic" in2="effect2_dropShadow_14_90" result="shape"/>
</filter>
<clipPath id="clip0_14_90">
<rect width="16" height="16" fill="white" transform="translate(4)"/>
</clipPath>
<clipPath id="clip1_14_90">
<rect width="16" height="16" fill="white" transform="translate(20)"/>
</clipPath>
<clipPath id="clip2_14_90">
<rect width="16" height="16" fill="white" transform="translate(36)"/>
</clipPath>
<clipPath id="clip3_14_90">
<rect width="16" height="16" fill="white" transform="translate(52)"/>
</clipPath>
<clipPath id="clip4_14_90">
<rect width="16" height="16" fill="white" transform="translate(68)"/>
</clipPath>
</defs>
</svg>
